<svg xmlns="http://www.w3.org/2000/svg" xmlns:xlink="http://www.w3.org/1999/xlink" viewBox="0,0,256,256" width="50px" height="50px"><g fill="#ffffff" fill-rule="nonzero" stroke="none" stroke-width="1" stroke-linecap="butt" stroke-linejoin="miter" stroke-miterlimit="10" stroke-dasharray="" stroke-dashoffset="0" font-family="none" font-weight="none" font-size="none" text-anchor="none" style="mix-blend-mode: normal"><g transform="scale(5.12,5.12)"><path d="M25,0c-12.683,0 -23,10.318 -23,23c0,6.502 2.71927,12.37355 7.07227,16.56055l-1.95312,3.41797c-0.173,0.302 -0.26172,0.64419 -0.26172,0.99219v4.0293c0,0.718 0.38481,1.38033 1.00781,1.73633c0.307,0.176 0.65019,0.26367 0.99219,0.26367c0.351,0 0.70067,-0.09234 1.01367,-0.27734l3.47461,-2.04492c0.3,-0.177 0.5487,-0.43042 0.7207,-0.73242l1.66406,-2.91211c2.839,1.257 5.97053,1.9668 9.26953,1.9668c3.299,0 6.43053,-0.7098 9.26953,-1.9668l1.66406,2.91211c0.173,0.302 0.4207,0.55542 0.7207,0.73242l3.47461,2.04492c0.313,0.185 0.66267,0.27734 1.01367,0.27734c0.342,0 0.68519,-0.08767 0.99219,-0.26367c0.623,-0.356 1.00781,-1.01933 1.00781,-1.73633v-4.0293c0,-0.348 -0.08972,-0.69019 -0.26172,-0.99219l-1.95312,-3.41797c4.353,-4.187 7.07227,-10.05855 7.07227,-16.56055c0,-12.682 -10.317,-23 -23,-23zM23,9h4c0.552,0 1,0.448 1,1v3h2c1.105,0 2,0.895 2,2v8.33398c0,0.266 -0.10592,0.52098 -0.29492,0.70898l-5.45508,5.42383c-0.713,0.709 -1.86427,0.70614 -2.57227,-0.00586l-5.38672,-5.41797c-0.186,-0.188 -0.29102,-0.44008 -0.29102,-0.70508v-8.33789c0,-1.105 0.895,-2 2,-2h2v-3c0,-0.552 0.448,-1 1,-1zM25,17c-1.65685,0 -3,1.34315 -3,3c0,1.65685 1.34315,3 3,3c1.65685,0 3,-1.34315 3,-3c0,-1.65685 -1.34315,-3 -3,-3zM36.94922,24h4c-0.263,4.226 -2.1738,8.01066 -5.0918,10.72266l0.00195,0.00195c-0.983,0.913 -2.07867,1.70366 -3.26367,2.34766l-0.00391,-0.00586c-2.26,1.228 -4.8428,1.93359 -7.5918,1.93359c-2.749,0 -5.3328,-0.70559 -7.5918,-1.93359l-5.07812,8.88672l-3.47266,2.04688v-4.0293l9.64453,-16.87891l2.92578,2.94141l-2.03906,3.56641c1.675,0.892 3.58433,1.40039 5.61133,1.40039c2.027,0 3.93437,-0.51034 5.60938,-1.40234l-0.00586,-0.00781c1.195,-0.64 2.27636,-1.47775 3.19336,-2.46875v-0.00586l0.00781,0.01367c1.762,-1.91 2.91653,-4.38891 3.14453,-7.12891zM31.49023,27.07617l1.25977,2.20508c-0.86,1.056 -1.92772,1.93527 -3.13672,2.57227l-1.06055,-1.85547zM36.87695,36.50195l4.26758,7.46875v4.0293h-0.00195l-3.47266,-2.04687l-4.08203,-7.14453c1.182,-0.646 2.28406,-1.42164 3.28906,-2.30664z"></path></g></g></svg>